<?xml version="1.0" standalone="no"?>
<!DOCTYPE svg PUBLIC "-//W3C//DTD SVG 20010904//EN"
 "http://www.w3.org/TR/2001/REC-SVG-20010904/DTD/svg10.dtd">
<svg version="1.0" xmlns="http://www.w3.org/2000/svg"
 width="80.000000pt" height="80.000000pt" viewBox="0 0 80.000000 80.000000"
 preserveAspectRatio="xMidYMid meet">
<metadata>
Created by potrace 1.14, written by Peter Selinger 2001-2017
</metadata>
<g transform="translate(0.000000,80.000000) scale(0.100000,-0.100000)"
fill="#000000" stroke="none">
<path d="M63 785 c-12 -9 -26 -30 -31 -48 -4 -18 -7 -180 -7 -361 l1 -329 28
-23 c26 -23 32 -24 217 -24 188 0 190 0 214 25 14 13 25 37 26 52 1 36 1 632
0 656 -1 10 -13 29 -27 42 -27 25 -29 25 -213 25 -151 0 -191 -3 -208 -15z"/>
<path d="M674 745 c-4 -31 -2 -50 7 -61 9 -12 13 -54 14 -151 0 -118 -2 -136
-17 -144 -9 -5 -22 -27 -28 -49 -12 -43 -16 -312 -5 -330 9 -15 112 -13 122 2
9 16 11 277 2 303 -4 11 -10 32 -13 48 -4 15 -13 27 -21 27 -13 0 -15 24 -15
145 0 80 4 145 9 145 16 0 21 32 11 71 -9 32 -15 39 -35 39 -21 0 -25 -6 -31
-45z"/>
</g>
</svg>
