<svg width="50" height="50" viewBox="0 0 50 50" fill="none" xmlns="http://www.w3.org/2000/svg">
<g opacity="0.1" clip-path="url(#clip0_2419_549)" filter="url(#filter0_d_2419_549)">
<path d="M44.7231 15.888L41.567 15.2019C41.2926 14.3617 40.9526 13.5421 40.5513 12.7527L42.2985 10.0349C42.6106 9.54928 42.5419 8.91174 42.134 8.50383L37.2173 3.58709C36.8094 3.17919 36.1719 3.11058 35.6863 3.42261L32.9685 5.16982C32.179 4.7685 31.3594 4.42858 30.5192 4.15414L29.8331 0.998072C29.7106 0.434153 29.2112 0.0318909 28.6341 0.0318909H21.681C21.1039 0.0318909 20.6046 0.434153 20.4821 0.998072L19.796 4.15414C18.9557 4.42858 18.1362 4.7685 17.3467 5.16982L14.6289 3.42261C14.1433 3.11058 13.5058 3.17919 13.0979 3.58709L8.18111 8.50383C7.77321 8.91174 7.7046 9.54928 8.01664 10.0349L9.76384 12.7527C9.36252 13.5421 9.0226 14.3617 8.74816 15.2019L5.5921 15.888C5.02818 16.0108 4.62592 16.5099 4.62592 17.087V24.0401C4.62592 24.6172 5.02818 25.1163 5.5921 25.2391L8.74816 25.9252C9.0226 26.7654 9.36252 27.585 9.76384 28.3745L8.01664 31.0922C7.7046 31.5778 7.77321 32.2154 8.18111 32.6233L13.0979 37.54C13.5058 37.9479 14.1433 38.0165 14.6289 37.7045L17.3467 35.9573C18.1362 36.3586 18.9557 36.6985 19.796 36.973L20.4821 40.129C20.6046 40.693 21.1039 41.0952 21.681 41.0952H28.6341C29.2112 41.0952 29.7106 40.693 29.8331 40.129L30.5192 36.973C31.3594 36.6985 32.179 36.3586 32.9685 35.9573L35.6863 37.7045C36.1719 38.0165 36.8094 37.9482 37.2173 37.54L42.134 32.6233C42.5419 32.2154 42.6106 31.5778 42.2985 31.0922L40.5513 28.3745C40.9526 27.585 41.2926 26.7654 41.567 25.9252L44.7231 25.2391C45.287 25.1163 45.6892 24.6172 45.6892 24.0401V17.087C45.6892 16.5099 45.287 16.0108 44.7231 15.888V15.888ZM32.5195 20.5636C32.5195 24.6228 29.2169 27.9255 25.1576 27.9255C21.0983 27.9255 17.7956 24.6228 17.7956 20.5636C17.7956 16.5043 21.0983 13.2016 25.1576 13.2016C29.2169 13.2016 32.5195 16.5043 32.5195 20.5636V20.5636Z" fill="black"/>
</g>
<defs>
<filter id="filter0_d_2419_549" x="0.625916" y="0.0318909" width="49.0634" height="49.0633" filterUnits="userSpaceOnUse" color-interpolation-filters="sRGB">
<feFlood flood-opacity="0" result="BackgroundImageFix"/>
<feColorMatrix in="SourceAlpha" type="matrix" values="0 0 0 0 0 0 0 0 0 0 0 0 0 0 0 0 0 0 127 0" result="hardAlpha"/>
<feOffset dy="4"/>
<feGaussianBlur stdDeviation="2"/>
<feComposite in2="hardAlpha" operator="out"/>
<feColorMatrix type="matrix" values="0 0 0 0 0 0 0 0 0 0 0 0 0 0 0 0 0 0 0.25 0"/>
<feBlend mode="normal" in2="BackgroundImageFix" result="effect1_dropShadow_2419_549"/>
<feBlend mode="normal" in="SourceGraphic" in2="effect1_dropShadow_2419_549" result="shape"/>
</filter>
<clipPath id="clip0_2419_549">
<rect width="41.0633" height="41.0633" fill="white" transform="translate(4.62592 0.0318909)"/>
</clipPath>
</defs>
</svg>
