<svg width="107" height="71" viewBox="0 0 107 71" fill="none" xmlns="http://www.w3.org/2000/svg">
<g filter="url(#filter0_d_1008_431)">
<path d="M102.796 61.4089C102.724 60.9167 102.311 60.5404 101.811 60.5332C100.016 60.5042 95.6513 59.9252 91.2502 55.5248C85.0249 49.3006 82.0932 48.2078 78.2422 48.2078C74.0076 48.2078 69.3892 50.4948 65.2342 54.6491C61.0285 58.8541 57.7856 60.4897 53.6667 60.4897C49.4538 60.4897 45.1612 56.8276 42.9751 54.6491C40.7456 52.42 35.1573 48.2078 29.9672 48.2078C25.4936 48.2078 21.1649 51.4719 17.683 54.0918L17.0678 54.555C16.4018 55.0544 15.7648 55.5827 15.1495 56.0966C12.6087 58.2172 10.191 60.2292 5.47131 60.468C4.93564 60.497 4.50854 60.9457 4.50854 61.4813C4.50854 62.0675 5.00082 62.5307 5.58715 62.5018C10.9872 62.2195 13.8827 59.8022 16.4524 57.6599C17.075 57.1388 17.6613 56.6466 18.2839 56.1834L18.9064 55.713C22.1421 53.274 26.1668 50.2415 29.9599 50.2415C33.6734 50.2415 38.6898 53.2523 41.5274 56.0821C43.9306 58.485 48.7082 62.5235 53.6595 62.5235C58.3212 62.5235 62.0926 60.6562 66.6674 56.0821C70.4388 52.3114 74.5432 50.2415 78.235 50.2415C81.1594 50.2415 83.5482 50.7119 89.8024 56.9651C94.6886 61.8576 99.5964 62.5452 101.783 62.5741C102.405 62.5886 102.89 62.0313 102.796 61.4089Z" fill="#FFD66B"/>
<path d="M102.796 37.5831C102.724 37.091 102.311 36.7147 101.811 36.7074C100.016 36.6785 95.6513 36.0995 91.2502 31.6991C85.0249 25.4749 82.0932 24.382 78.2422 24.382C74.0076 24.382 69.3892 26.6691 65.2342 30.8234C61.0285 35.0283 57.7856 36.664 53.6667 36.664C49.4538 36.664 45.1612 33.0018 42.9751 30.8234C40.7456 28.5942 35.1573 24.382 29.9672 24.382C25.4936 24.382 21.1649 27.6461 17.683 30.2661L17.0678 30.7293C16.4018 31.2287 15.7648 31.757 15.1495 32.2708C12.6087 34.3914 10.191 36.4034 5.47131 36.6423C4.93564 36.6712 4.50854 37.12 4.50854 37.6555C4.50854 38.2418 5.00082 38.705 5.58715 38.676C10.9872 38.3937 13.8827 35.9764 16.4524 33.8341C17.075 33.313 17.6613 32.8209 18.2839 32.3577L18.9064 31.8873C22.1421 29.4482 26.1668 26.4157 29.9599 26.4157C33.6734 26.4157 38.6898 29.4265 41.5274 32.2564C43.9306 34.6592 48.7082 38.6977 53.6595 38.6977C58.3212 38.6977 62.0926 36.8304 66.6674 32.2564C70.4388 28.4857 74.5432 26.4157 78.235 26.4157C81.1594 26.4157 83.5482 26.8862 89.8024 33.1393C94.6886 38.0246 99.5964 38.7122 101.783 38.7484C102.405 38.7629 102.89 38.2056 102.796 37.5831Z" fill="#FFD66B"/>
<path d="M5.58654 14.8575C10.9866 14.5752 13.8821 12.1579 16.4518 10.0156C17.0744 9.4945 17.6607 9.00236 18.2832 8.53916L18.9058 8.06872C22.1415 5.6297 26.1662 2.5972 29.9593 2.5972C33.6728 2.5972 38.6892 5.60799 41.5268 8.43783C43.93 10.8407 48.7076 14.8792 53.6589 14.8792C58.3206 14.8792 62.092 13.0119 66.6668 8.43783C70.4382 4.66712 74.5426 2.5972 78.2344 2.5972C81.1588 2.5972 83.5476 3.06764 89.8018 9.3208C94.688 14.2061 99.5958 14.8936 101.782 14.9298C102.404 14.9371 102.889 14.3798 102.795 13.7646C102.723 13.2725 102.31 12.8961 101.811 12.8889C100.016 12.8599 95.6507 12.2809 91.2496 7.88055C85.0243 1.65633 82.0926 0.563477 78.2416 0.563477C74.0069 0.563477 69.3886 2.85051 65.2336 7.00481C61.0279 11.2098 57.785 12.8454 53.6661 12.8454C49.4532 12.8454 45.1606 9.18329 42.9745 7.00481C40.745 4.77568 35.1567 0.563477 29.9666 0.563477C25.493 0.563477 21.1642 3.82757 17.6824 6.44753L17.0671 6.91073C16.4012 7.41011 15.7642 7.93845 15.1489 8.45231C12.6081 10.5729 10.1903 12.5849 5.4707 12.8237C4.93503 12.8527 4.50793 13.3014 4.50793 13.837C4.50793 14.4232 5.00744 14.8864 5.58654 14.8575Z" fill="#FFD66B"/>
</g>
<defs>
<filter id="filter0_d_1008_431" x="0.507935" y="0.563477" width="106.3" height="70.0109" filterUnits="userSpaceOnUse" color-interpolation-filters="sRGB">
<feFlood flood-opacity="0" result="BackgroundImageFix"/>
<feColorMatrix in="SourceAlpha" type="matrix" values="0 0 0 0 0 0 0 0 0 0 0 0 0 0 0 0 0 0 127 0" result="hardAlpha"/>
<feOffset dy="4"/>
<feGaussianBlur stdDeviation="2"/>
<feComposite in2="hardAlpha" operator="out"/>
<feColorMatrix type="matrix" values="0 0 0 0 0 0 0 0 0 0 0 0 0 0 0 0 0 0 0.25 0"/>
<feBlend mode="normal" in2="BackgroundImageFix" result="effect1_dropShadow_1008_431"/>
<feBlend mode="normal" in="SourceGraphic" in2="effect1_dropShadow_1008_431" result="shape"/>
</filter>
</defs>
</svg>
