<?xml version="1.0" encoding="UTF-8"?>
<svg xmlns="http://www.w3.org/2000/svg" xmlns:xlink="http://www.w3.org/1999/xlink" width="56px" height="56px" viewBox="0 0 56 56" version="1.1">
<g id="surface1">
<path style=" stroke:none;fill-rule:nonzero;fill:rgb(0%,0%,0%);fill-opacity:1;" d="M 28 56 C 12.535156 56 0 43.464844 0 28 C 0 12.535156 12.535156 0 28 0 C 43.464844 0 56 12.535156 56 28 C 56 43.464844 43.464844 56 28 56 Z M 28 1.75 C 13.503906 1.75 1.75 13.503906 1.75 28 C 1.75 42.496094 13.503906 54.25 28 54.25 C 42.496094 54.25 54.25 42.496094 54.25 28 C 54.25 13.503906 42.496094 1.75 28 1.75 Z M 30.625 21 L 32.375 21 L 32.375 35 L 30.625 35 Z M 23.625 21 L 25.375 21 L 25.375 35 L 23.625 35 Z M 23.625 21 "/>
</g>
</svg>
