<svg width="33" height="41" viewBox="0 0 33 41" fill="none" xmlns="http://www.w3.org/2000/svg">
<path d="M27.2032 21.5432C27.2594 27.5965 32.5135 29.6109 32.5717 29.6365C32.5273 29.7785 31.7322 32.5071 29.8036 35.3256C28.1363 37.7623 26.4061 40.19 23.6803 40.2403C21.002 40.2897 20.1408 38.6521 17.0787 38.6521C14.0175 38.6521 13.0606 40.1901 10.5253 40.2897C7.89421 40.3894 5.89062 37.6548 4.20965 35.227C0.774648 30.2609 -1.85041 21.194 1.67438 15.0737C3.42541 12.0343 6.55465 10.1096 9.95116 10.0603C12.5348 10.011 14.9734 11.7984 16.5528 11.7984C18.1313 11.7984 21.0947 9.64887 24.2101 9.96457C25.5143 10.0188 29.1753 10.4914 31.526 13.9323C31.3366 14.0497 27.1578 16.4824 27.2032 21.5432ZM22.1696 6.67907C23.5664 4.98825 24.5066 2.63447 24.2501 0.29248C22.2366 0.373404 19.8019 1.63418 18.3577 3.32407C17.0634 4.82054 15.9299 7.21575 16.2358 9.51138C18.48 9.68501 20.7726 8.37096 22.1696 6.67907Z" fill="black"/>
</svg>
