<svg width="79" height="79" viewBox="0 0 79 79" fill="none" xmlns="http://www.w3.org/2000/svg">
<path d="M40.925 1.3424C39.9672 0.384563 38.4181 0.384563 37.4603 1.3424C36.5025 2.30024 36.5025 3.84929 37.4603 4.80713C38.4181 5.76497 39.9672 5.76497 40.925 4.80713C41.8829 3.84929 41.8829 2.30024 40.925 1.3424Z" fill="#005AAA"/>
<path d="M53.0629 13.4803C52.1051 12.5224 50.556 12.5224 49.5982 13.4803C48.6403 14.4381 48.6403 15.9872 49.5982 16.945C50.556 17.9028 52.1051 17.9028 53.0629 16.945C54.0207 15.9872 54.0207 14.4381 53.0629 13.4803Z" fill="#005AAA"/>
<path d="M65.2008 25.6182C64.243 24.6604 62.694 24.6604 61.7361 25.6182C60.7783 26.5761 60.7783 28.1251 61.7361 29.0829C62.694 30.0408 64.243 30.0408 65.2008 29.0829C66.1587 28.1251 66.1587 26.5761 65.2008 25.6182Z" fill="#005AAA"/>
<path d="M73.8695 41.2254C74.8274 42.1832 76.3764 42.1832 77.3343 41.2254C78.2921 40.2676 78.2921 38.7185 77.3343 37.7607C76.3764 36.8028 74.8274 36.8028 73.8695 37.7607C72.9117 38.7185 72.9117 40.2676 73.8695 41.2254Z" fill="#005AAA"/>
<path d="M28.7893 13.478C27.8315 12.5202 26.2824 12.5202 25.3246 13.478C24.3668 14.4359 24.3668 15.9849 25.3246 16.9427C26.2824 17.9006 27.8315 17.9006 28.7893 16.9427C29.7517 15.9895 29.7472 14.4359 28.7893 13.478Z" fill="#005AAA"/>
<path d="M40.9272 25.6158C39.9694 24.6579 38.4204 24.6579 37.4625 25.6158C36.5047 26.5736 36.5047 28.1227 37.4625 29.0805C38.4204 30.0383 39.9694 30.0383 40.9272 29.0805C41.8851 28.1227 41.8851 26.5736 40.9272 25.6158Z" fill="#005AAA"/>
<path d="M53.0653 37.7537C52.1075 36.7959 50.5585 36.7959 49.6006 37.7537C48.6428 38.7116 48.6428 40.2606 49.6006 41.2184C50.5585 42.1763 52.1075 42.1763 53.0653 41.2184C54.0232 40.2606 54.0232 38.7116 53.0653 37.7537Z" fill="#005AAA"/>
<path d="M65.2033 49.8917C64.2454 48.9339 62.6964 48.9339 61.7386 49.8917C60.7807 50.8495 60.7807 52.3986 61.7386 53.3564C62.6964 54.3142 64.2454 54.3142 65.2033 53.3564C66.1611 52.3986 66.1611 50.8495 65.2033 49.8917Z" fill="#005AAA"/>
<path d="M16.6536 25.6136C15.6958 24.6557 14.1468 24.6557 13.1889 25.6136C12.2311 26.5714 12.2311 28.1204 13.1889 29.0782C14.1468 30.0361 15.6958 30.0361 16.6536 29.0782C17.6161 28.125 17.6115 26.5714 16.6536 25.6136Z" fill="#005AAA"/>
<path d="M28.7916 37.7515C27.8338 36.7937 26.2847 36.7937 25.3269 37.7515C24.369 38.7093 24.369 40.2584 25.3269 41.2162C26.2847 42.174 27.8338 42.174 28.7916 41.2162C29.7494 40.2584 29.7494 38.7093 28.7916 37.7515Z" fill="#005AAA"/>
<path d="M40.9297 49.8894C39.9718 48.9316 38.4228 48.9316 37.465 49.8894C36.5071 50.8473 36.5071 52.3963 37.465 53.3541C38.4228 54.312 39.9718 54.312 40.9297 53.3541C41.8875 52.3963 41.8875 50.8473 40.9297 49.8894Z" fill="#005AAA"/>
<path d="M53.0675 62.0273C52.1097 61.0695 50.5607 61.0695 49.6028 62.0273C48.645 62.9852 48.645 64.5342 49.6028 65.4921C50.5607 66.4499 52.1097 66.4499 53.0675 65.4921C54.0254 64.5342 54.0254 62.9852 53.0675 62.0273Z" fill="#005AAA"/>
<path d="M4.5226 37.7446C3.56476 36.7868 2.01572 36.7868 1.05789 37.7446C0.100049 38.7024 0.100049 40.2515 1.05789 41.2093C2.01572 42.1671 3.56476 42.1671 4.5226 41.2093C5.48043 40.2606 5.48043 38.7024 4.5226 37.7446Z" fill="#005AAA"/>
<path d="M16.6607 49.8826C15.7028 48.9248 14.1538 48.9248 13.196 49.8826C12.2381 50.8404 12.2381 52.3895 13.196 53.3473C14.1538 54.3051 15.7028 54.3051 16.6607 53.3473C17.6139 52.3941 17.6185 50.8404 16.6607 49.8826Z" fill="#005AAA"/>
<path d="M28.7985 62.0205C27.8407 61.0627 26.2916 61.0627 25.3338 62.0205C24.376 62.9783 24.376 64.5274 25.3338 65.4852C26.2916 66.4431 27.8407 66.4431 28.7985 65.4852C29.7518 64.532 29.7563 62.9783 28.7985 62.0205Z" fill="#005AAA"/>
<path d="M40.9364 74.1584C39.9786 73.2006 38.4296 73.2006 37.4718 74.1584C36.5139 75.1163 36.5139 76.6653 37.4718 77.6232C38.4296 78.581 39.9786 78.581 40.9364 77.6232C41.8897 76.6699 41.8943 75.1163 40.9364 74.1584Z" fill="#005AAA"/>
</svg>
