<svg width="31" height="29" viewBox="0 0 31 29" fill="none" xmlns="http://www.w3.org/2000/svg">
<path d="M29.9679 10.8429C29.8393 10.4143 29.4107 10.0714 28.9393 10.0714L19.2536 9.85714L16.0393 0.728571C15.9107 0.3 15.4822 0 15.0107 0C14.5393 0 14.1107 0.3 13.9822 0.728571L10.7679 9.85714L1.08216 10.0714C0.610728 10.0714 0.182157 10.3714 0.0535854 10.8429C-0.074986 11.2714 0.0535854 11.7857 0.4393 12.0857L8.15359 17.9571L5.36787 27.2143C5.2393 27.6857 5.41073 28.1571 5.79644 28.4143C6.18216 28.6714 6.69644 28.7143 7.08216 28.4143L15.0107 22.9286L22.9822 28.4143C23.3679 28.6714 23.8822 28.6714 24.2679 28.4143C24.6536 28.1571 24.825 27.6429 24.6964 27.2143L21.8679 17.9571L29.5822 12.0857C29.9679 11.7857 30.0964 11.3143 29.9679 10.8429Z" fill="#FFD66B"/>
</svg>
